<svg width="220" height="220" viewBox="0 0 220 220" fill="none" xmlns="http://www.w3.org/2000/svg">
  <defs>
    <style>
      .float {
        animation: float 2.8s ease-in-out infinite;
        transform-origin: center;
      }

```
  .outline {
    fill: #f7f7f7;
  }

  .cat {
    fill: #08090d;
  }

  .inner-ear {
    fill: #2a1825;
  }

  .eye {
    fill: #ff4fa3;
    stroke: #ffffff;
    stroke-width: 5;
  }

  .highlight {
    fill: #ffffff;
  }

  .nose {
    fill: #ff8fcd;
  }

  .mouth {
    fill: none;
    stroke: #ff8fcd;
    stroke-width: 8;
    stroke-linecap: round;
  }

  .whisker {
    stroke: #d7d7d7;
    stroke-width: 6;
    stroke-linecap: round;
  }

  @keyframes float {
    0%, 100% {
      transform: translateY(0);
    }

    50% {
      transform: translateY(-5px);
    }
  }
</style>
```

  </defs>

  <rect width="220" height="220" fill="transparent"/>

  <g class="float">
    <path class="outline" d="M60 81L74 24L111 61L147 24L160 81C186 106 196 139 185 169C173 203 139 214 110 214C81 214 47 203 35 169C24 139 34 106 60 81Z"/>
    <path class="cat" d="M66 83L78 36L109 68C110 69 112 69 113 68L144 36L155 83C178 105 187 135 177 163C166 192 136 202 110 202C84 202 54 192 43 163C33 135 42 105 66 83Z"/>
    <path class="inner-ear" d="M81 42L101 77L66 84L81 42Z"/>
    <path class="inner-ear" d="M141 42L121 77L156 84L141 42Z"/>
    <ellipse class="eye" cx="77" cy="116" rx="18" ry="25"/>
    <ellipse class="eye" cx="143" cy="116" rx="18" ry="25"/>
    <ellipse class="highlight" cx="84" cy="111" rx="6" ry="12"/>
    <ellipse class="highlight" cx="150" cy="111" rx="6" ry="12"/>
    <path class="nose" d="M101 140H119L110 153L101 140Z"/>
    <path class="mouth" d="M110 152V163"/>
    <path class="mouth" d="M110 163C100 176 87 176 76 164"/>
    <path class="mouth" d="M110 163C120 176 133 176 144 164"/>
    <path class="whisker" d="M57 130L25 123"/>
    <path class="whisker" d="M57 143H21"/>
    <path class="whisker" d="M57 156L25 163"/>
    <path class="whisker" d="M163 130L195 123"/>
    <path class="whisker" d="M163 143H199"/>
    <path class="whisker" d="M163 156L195 163"/>
  </g>
</svg>
