<svg width="920" height="280" viewBox="0 0 920 280" fill="none" xmlns="http://www.w3.org/2000/svg">
  <defs>
    <clipPath id="rowClip">
      <rect x="0" y="0" width="920" height="72"/>
    </clipPath>

```
<style>
  .heading {
    font-family: -apple-system, BlinkMacSystemFont, "Segoe UI", Helvetica, Arial, sans-serif;
    font-size: 34px;
    font-weight: 700;
    fill: #ffffff;
  }

  .badge-text {
    font-family: "SFMono-Regular", Consolas, "Liberation Mono", Menlo, monospace;
    font-size: 22px;
    font-weight: 800;
    letter-spacing: 2px;
    fill: #ffffff;
  }

  .badge-text-dark {
    font-family: "SFMono-Regular", Consolas, "Liberation Mono", Menlo, monospace;
    font-size: 22px;
    font-weight: 800;
    letter-spacing: 2px;
    fill: #111111;
  }

  .marquee-lang {
    animation: moveRightLang 12s linear infinite;
  }

  .marquee-tools {
    animation: moveRightTools 15s linear infinite;
  }

  @keyframes moveRightLang {
    from {
      transform: translateX(-748px);
    }

    to {
      transform: translateX(0);
    }
  }

  @keyframes moveRightTools {
    from {
      transform: translateX(-984px);
    }

    to {
      transform: translateX(0);
    }
  }
</style>
```

  </defs>

  <rect width="920" height="280" fill="transparent"/>

<text x="0" y="38" class="heading">Languages</text>

  <g transform="translate(0 70)" clip-path="url(#rowClip)">
    <g class="marquee-lang">
      <g transform="translate(0 0)">
        <rect x="0" y="0" width="155" height="56" fill="#f38b00"/>
        <text x="26" y="36" class="badge-text">JAVA</text>

```
    <rect x="163" y="0" width="190" height="56" fill="#3776ab"/>
    <text x="189" y="36" class="badge-text">PYTHON</text>

    <rect x="361" y="0" width="255" height="56" fill="#f7df1e"/>
    <text x="387" y="36" class="badge-text-dark">JAVASCRIPT</text>

    <rect x="624" y="0" width="116" height="56" fill="#663399"/>
    <text x="650" y="36" class="badge-text">CSS</text>
  </g>

  <g transform="translate(748 0)">
    <rect x="0" y="0" width="155" height="56" fill="#f38b00"/>
    <text x="26" y="36" class="badge-text">JAVA</text>

    <rect x="163" y="0" width="190" height="56" fill="#3776ab"/>
    <text x="189" y="36" class="badge-text">PYTHON</text>

    <rect x="361" y="0" width="255" height="56" fill="#f7df1e"/>
    <text x="387" y="36" class="badge-text-dark">JAVASCRIPT</text>

    <rect x="624" y="0" width="116" height="56" fill="#663399"/>
    <text x="650" y="36" class="badge-text">CSS</text>
  </g>

  <g transform="translate(1496 0)">
    <rect x="0" y="0" width="155" height="56" fill="#f38b00"/>
    <text x="26" y="36" class="badge-text">JAVA</text>

    <rect x="163" y="0" width="190" height="56" fill="#3776ab"/>
    <text x="189" y="36" class="badge-text">PYTHON</text>

    <rect x="361" y="0" width="255" height="56" fill="#f7df1e"/>
    <text x="387" y="36" class="badge-text-dark">JAVASCRIPT</text>

    <rect x="624" y="0" width="116" height="56" fill="#663399"/>
    <text x="650" y="36" class="badge-text">CSS</text>
  </g>
</g>
```

  </g>

<text x="0" y="180" class="heading">Tools</text>

  <g transform="translate(0 212)" clip-path="url(#rowClip)">
    <g class="marquee-tools">
      <g transform="translate(0 0)">
        <rect x="0" y="0" width="190" height="56" fill="#02303a"/>
        <text x="26" y="36" class="badge-text">GRADLE</text>

```
    <rect x="198" y="0" width="195" height="56" fill="#2496ed"/>
    <text x="224" y="36" class="badge-text">DOCKER</text>

    <rect x="401" y="0" width="135" height="56" fill="#f05032"/>
    <text x="427" y="36" class="badge-text">GIT</text>

    <rect x="544" y="0" width="225" height="56" fill="#2ead33"/>
    <text x="570" y="36" class="badge-text">PLAYWRIGHT</text>

    <rect x="777" y="0" width="199" height="56" fill="#f71828"/>
    <text x="803" y="36" class="badge-text">JAKARTA EE</text>
  </g>

  <g transform="translate(984 0)">
    <rect x="0" y="0" width="190" height="56" fill="#02303a"/>
    <text x="26" y="36" class="badge-text">GRADLE</text>

    <rect x="198" y="0" width="195" height="56" fill="#2496ed"/>
    <text x="224" y="36" class="badge-text">DOCKER</text>

    <rect x="401" y="0" width="135" height="56" fill="#f05032"/>
    <text x="427" y="36" class="badge-text">GIT</text>

    <rect x="544" y="0" width="225" height="56" fill="#2ead33"/>
    <text x="570" y="36" class="badge-text">PLAYWRIGHT</text>

    <rect x="777" y="0" width="199" height="56" fill="#f71828"/>
    <text x="803" y="36" class="badge-text">JAKARTA EE</text>
  </g>

  <g transform="translate(1968 0)">
    <rect x="0" y="0" width="190" height="56" fill="#02303a"/>
    <text x="26" y="36" class="badge-text">GRADLE</text>

    <rect x="198" y="0" width="195" height="56" fill="#2496ed"/>
    <text x="224" y="36" class="badge-text">DOCKER</text>

    <rect x="401" y="0" width="135" height="56" fill="#f05032"/>
    <text x="427" y="36" class="badge-text">GIT</text>

    <rect x="544" y="0" width="225" height="56" fill="#2ead33"/>
    <text x="570" y="36" class="badge-text">PLAYWRIGHT</text>

    <rect x="777" y="0" width="199" height="56" fill="#f71828"/>
    <text x="803" y="36" class="badge-text">JAKARTA EE</text>
  </g>
</g>
```

  </g>
</svg>
