<svg width="570" height="390" viewBox="0 0 570 390" fill="none" xmlns="http://www.w3.org/2000/svg">
  <defs>
    <style>
      .title {
        font-family: -apple-system, BlinkMacSystemFont, "Segoe UI", Helvetica, Arial, sans-serif;
        font-size: 44px;
        font-weight: 500;
        fill: #ff4fa3;
      }

      .label {
        font-family: -apple-system, BlinkMacSystemFont, "Segoe UI", Helvetica, Arial, sans-serif;
        font-size: 28px;
        font-weight: 600;
        fill: #b9fff7;
      }

      .donut {
        transform-box: fill-box;
        transform-origin: center;
        animation: spin 9s linear infinite;
      }

      @keyframes spin {
        from {
          transform: rotate(0deg);
        }

        to {
          transform: rotate(360deg);
        }
      }
    </style>
  </defs>

  <rect width="570" height="390" fill="#171421"/>

  <text x="24" y="61" class="title">Languages by Repo</text>

  <rect x="47" y="98" width="25" height="25" fill="#b07219"/><text x="79" y="121" class="label">Java 81.6%</text><rect x="47" y="148" width="25" height="25" fill="#f1e05a"/><text x="79" y="171" class="label">JavaScript 11.6%</text><rect x="47" y="198" width="25" height="25" fill="#663399"/><text x="79" y="221" class="label">CSS 3.4%</text><rect x="47" y="248" width="25" height="25" fill="#3572A5"/><text x="79" y="271" class="label">Python 3.2%</text><rect x="47" y="298" width="25" height="25" fill="#384d54"/><text x="79" y="321" class="label">Dockerfile 0.2%</text>

  <g class="donut">
    <circle cx="425" cy="205" r="91" fill="none" stroke="#b07219" stroke-width="47" stroke-dasharray="466.75 571.77" stroke-dashoffset="-0.00" transform="rotate(-90 425 205)"/><circle cx="425" cy="205" r="91" fill="none" stroke="#f1e05a" stroke-width="47" stroke-dasharray="66.25 571.77" stroke-dashoffset="-466.75" transform="rotate(-90 425 205)"/><circle cx="425" cy="205" r="91" fill="none" stroke="#663399" stroke-width="47" stroke-dasharray="19.24 571.77" stroke-dashoffset="-533.00" transform="rotate(-90 425 205)"/><circle cx="425" cy="205" r="91" fill="none" stroke="#3572A5" stroke-width="47" stroke-dasharray="18.26 571.77" stroke-dashoffset="-552.24" transform="rotate(-90 425 205)"/><circle cx="425" cy="205" r="91" fill="none" stroke="#384d54" stroke-width="47" stroke-dasharray="1.27 571.77" stroke-dashoffset="-570.50" transform="rotate(-90 425 205)"/>
  </g>

  <circle cx="425" cy="205" r="67" fill="#171421"/>
</svg>
